<svg id="Capa_1" enable-background="new 0 0 512 512" height="512" viewBox="0 0 512 512" width="512" xmlns="http://www.w3.org/2000/svg"><g><path d="m507.924 158.731c-3.626-4.611-9.071-7.256-14.938-7.256h-37.56l19.738-81.404c1.487-6.137.102-12.504-3.802-17.468s-9.766-7.811-16.081-7.811h-71.161v-17.105h9.712c4.243 0 7.682-3.44 7.682-7.682s-3.439-7.682-7.682-7.682h-34.788c-4.243 0-7.682 3.44-7.682 7.682s3.439 7.682 7.682 7.682h9.711v17.104h-74.639c-6.315 0-12.177 2.847-16.081 7.811s-5.29 11.331-3.802 17.468l19.738 81.404h-37.651c-5.867 0-11.313 2.645-14.94 7.257-3.626 4.612-4.914 10.526-3.531 16.227l20.376 84.038c1.925 7.94 8.611 13.649 16.601 14.428v42.715h-209.76c-7.572 0-14.95 3.106-20.24 8.523l-42.639 43.655c-1.385 1.416-2.187 3.389-2.187 5.368v89.754c0 22.523 18.324 40.847 40.848 40.847h411.091c13.119 0 23.791-10.673 23.791-23.791v-67.789c0-4.243-3.439-7.682-7.682-7.682s-7.682 3.44-7.682 7.682v67.789c0 4.646-3.78 8.427-8.427 8.427h-31.87v-58.029c0-12.122-9.862-21.984-21.984-21.984h-46.772c-12.122 0-21.984 9.862-21.984 21.984v58.029h-39.137v-215.398h170.173v103.894c0 4.243 3.439 7.682 7.682 7.682s7.682-3.44 7.682-7.682v-104.152c7.431-1.223 13.527-6.746 15.351-14.268l20.376-84.038c1.384-5.703.095-11.618-3.532-16.229zm-163.23 272.162c0-3.65 2.969-6.62 6.619-6.62h46.772c3.65 0 6.619 2.969 6.619 6.62v58.029h-60.01zm-55.528-364.442c-.507-2.092.375-3.623.946-4.349.571-.727 1.852-1.945 4.004-1.945h161.165c2.153 0 3.433 1.218 4.004 1.945.571.726 1.453 2.257.946 4.349l-20.615 85.025h-129.834zm-233.349 268.948c2.418-2.475 5.789-3.895 9.249-3.895h209.761v34.498h-248.902zm-40.452 128.04v-82.072h259.463v107.554h-24.061v-58.029c0-12.122-9.862-21.984-21.985-21.984h-46.771c-12.122 0-21.984 9.862-21.984 21.984v58.029h-119.179c-14.052.001-25.483-11.431-25.483-25.482zm160.027 25.483v-58.029c0-3.65 2.969-6.62 6.619-6.62h46.771c3.65 0 6.62 2.969 6.62 6.62v58.029zm321.133-317.583c-18.472 70.006-16.798 90.263-28.477 86.821h-185.538c-3.135-.35-7.587 1.418-9.351-2.782l-20.376-84.039c-.022-1.596-.462-3.489 3.538-4.498h236.666c1.555.355 3.501.372 3.538 4.498z"/><path d="m443.696 186.263h-134.515c-4.243 0-7.682 3.44-7.682 7.682v37.108c0 4.243 3.439 7.682 7.682 7.682h134.515c4.243 0 7.682-3.44 7.682-7.682v-37.108c.001-4.242-3.438-7.682-7.682-7.682zm-7.682 37.108h-119.15v-21.743h119.15z"/><path d="m124.804 408.909h-75.376c-4.243 0-7.682 3.44-7.682 7.682 0 4.243 3.439 7.682 7.682 7.682h75.375c4.243 0 7.682-3.44 7.682-7.682.001-4.243-3.438-7.682-7.681-7.682z"/><path d="m337.012 290.629c-4.243 0-7.682 3.44-7.682 7.682 0 4.243 3.439 7.682 7.682 7.682h75.375c4.243 0 7.682-3.44 7.682-7.682 0-4.243-3.439-7.682-7.682-7.682z"/><path d="m353.22 97.698c-4.704 0-8.518 3.814-8.518 8.518s3.814 8.518 8.518 8.518 8.518-3.814 8.518-8.518-3.813-8.518-8.518-8.518z"/><path d="m394.592 97.698c-4.704 0-8.518 3.814-8.518 8.518s3.813 8.518 8.518 8.518 8.518-3.814 8.518-8.518-3.814-8.518-8.518-8.518z"/><path d="m8.805 119.575 18.295 15.473c15.542 13.303 40.719 15.325 58.926 4.344l156.733-99.118c2.763-1.838 5.08-6.506 2.047-11.093-8.66-11.583-30.707-30.04-52.16-16.975-17.768 10.821-48.315 31.41-58.462 38.284l-55.587-21.388c-1.871-.718-3.946-.679-5.787.11l-26.827 11.504c-4.157 2.029-6.703 7.734-2.075 12.804l33.622 29.872-20.28 18.379-30.185-4.109c-1.892-.257-3.815.199-5.39 1.283l-12.263 8.435c-3.011 2.168-5.086 7.753-.607 12.195zm19.13-6.288c6.042-.209 32.358 7.097 36.982 2.271l29.276-26.53c2.452-2.324 3.912-7.466-.056-11.436l-30.979-27.523 12.837-5.505 56.421 21.708c2.357.905 5.001.598 7.083-.82.401-.274 40.392-27.489 61.139-40.124 9.554-5.821 19.895 1.109 26.124 6.883l-148.949 94.194c-11.423 6.854-29.417 6.515-40.792-3.089l-10.615-8.978z"/><path d="m77.874 233.786-32.731 20.123c-3.615 2.222-4.743 6.954-2.521 10.568 1.45 2.36 3.97 3.66 6.551 3.66 1.372 0 2.762-.368 4.016-1.139l32.731-20.123c3.615-2.222 4.743-6.954 2.521-10.568-2.221-3.615-6.953-4.743-10.567-2.521z"/><path d="m156.803 146.927c-2.272-3.584-7.02-4.645-10.601-2.375l-75.638 47.954c-3.584 2.272-4.646 7.019-2.375 10.602 1.462 2.307 3.951 3.57 6.495 3.57 1.407 0 2.831-.386 4.106-1.195l75.638-47.954c3.584-2.272 4.647-7.019 2.375-10.602z"/></g></svg>